<svg xmlns="http://www.w3.org/2000/svg" viewBox="0 0 512 512"><!--!Font Awesome Free 6.5.2 by @fontawesome - https://fontawesome.com License - https://fontawesome.com/license/free Copyright 2024 Fonticons, Inc.--><path fill="#000000" d="M495.9 166.6c3.2 8.7 .5 18.4-6.4 24.6l-43.3 39.4c1.1 8.3 1.7 16.8 1.7 25.4s-.6 17.1-1.7 25.4l43.3 39.4c6.9 6.2 9.6 15.9 6.4 24.6c-3.2 8.7-11.4 14.6-20.8 14.6h-86.5c-3.5 9.2-7.9 17.9-13.1 25.9l43.4 80.1c5.4 9.9 2.2 22.4-7.7 27.8s-22.4 2.2-27.8-7.7l-62.2-114.7c-11.9 5.2-24.6 9.3-37.8 12.2V480c0 11-9 20-20 20s-20-9-20-20V388.2c-13.2-2.9-25.9-7-37.8-12.2L124.9 490.3c-5.4 9.9-17.9 13.1-27.8 7.7s-13.1-17.9-7.7-27.8l43.4-80.1c-5.2-8-9.6-16.7-13.1-25.9H16.1c-9.4 0-17.6-5.9-20.8-14.6c-3.2-8.7-.5-18.4 6.4-24.6l43.3-39.4C44 273.1 43.4 264.6 43.4 256s.6-17.1 1.7-25.4L2.1 191.2c-6.9-6.2-9.6-15.9-6.4-24.6c3.2-8.7 11.4-14.6 20.8-14.6h86.5c3.5-9.2 7.9-17.9 13.1-25.9L72.7 46.3c-5.4-9.9-2.2-22.4 7.7-27.8s22.4-2.2 27.8 7.7l62.2 114.7c11.9-5.2 24.6-9.3 37.8-12.2V32c0-11 9-20 20-20s20 9 20 20v94.2c13.2 2.9 25.9 7 37.8 12.2l62.2-114.7c5.4-9.9 17.9-13.1 27.8-7.7s13.1 17.9 7.7 27.8l-43.4 80.1c5.2 8 9.6 16.7 13.1 25.9H475.1c9.4 0 17.6 5.9 20.8 14.6zM256 336a80 80 0 1 0 0-160 80 80 0 1 0 0 160z"/></svg>